<svg width="440" height="120" viewBox="0 0 440 120" fill="none" xmlns="http://www.w3.org/2000/svg">
<path d="M430.729 86.1729H434.636V119H430.729V86.1729Z" fill="#262626"/>
<path d="M420.536 86.1729H424.444V90.9543H420.536V86.1729ZM420.536 95.2301H424.444V119H420.536V95.2301Z" fill="#262626"/>
<path d="M405.359 94.6787C412.072 94.6787 414.233 97.3453 414.233 101.069V114.77C414.233 115.644 414.646 116.103 415.474 116.103C415.842 116.103 416.302 116.011 416.669 115.874V118.908C415.934 119.322 414.968 119.552 413.865 119.552C411.75 119.552 410.555 118.356 410.555 115.874C408.486 118.31 405.681 119.552 402.187 119.552C397.314 119.552 394.325 117.161 394.325 112.885C394.325 110.77 395.015 109.069 396.394 107.828C397.727 106.54 400.9 105.621 406.003 104.977C409.451 104.564 410.371 103.736 410.371 102.035C410.371 99.4142 408.762 98.1269 405.084 98.1269C401.222 98.1269 399.337 99.5521 399.153 102.633H395.245C395.521 97.3453 399.107 94.6787 405.359 94.6787ZM398.463 112.609C398.463 114.816 400.164 116.103 403.061 116.103C407.612 116.103 410.325 113.437 410.325 110.816V106.724C409.681 107.184 408.624 107.552 407.566 107.69L403.566 108.288C400.118 108.793 398.463 110.127 398.463 112.609Z" fill="#262626"/>
<path d="M382.627 88.1045H386.535V95.2307H391.27V98.6789H386.535V113.575C386.535 114.77 386.903 115.368 387.73 115.46C388.512 115.506 389.339 115.552 390.167 115.552H391.27V119H388.052C383.73 119 382.627 117.621 382.627 114.035V98.6789H378.581V95.2307H382.627V88.1045Z" fill="#262626"/>
<path d="M366.301 94.6787C369.703 94.6787 372.37 95.9201 374.255 98.3568C376.14 100.793 377.059 103.966 377.059 107.828V108.288H359.267V108.563C359.267 113.115 362.071 116.103 366.669 116.103C370.163 116.103 372.186 114.402 372.83 111.46H376.692C375.634 116.747 371.91 119.552 366.531 119.552C364.048 119.552 361.933 119 360.232 117.896C356.738 115.598 355.129 111.092 355.129 106.954C355.129 103.46 356.14 100.564 358.255 98.2188C360.37 95.8741 363.083 94.6787 366.301 94.6787ZM359.267 104.839H372.922C372.692 101.023 369.887 98.1269 366.025 98.1269C362.347 98.1269 359.589 100.793 359.267 104.839Z" fill="#262626"/>
<path d="M325.586 86.1729H341.218C346.873 86.1729 351.011 89.2992 351.011 94.7703C351.011 99.092 349.126 101.989 345.31 103.092V103.184C348.574 103.828 350.091 105.759 350.321 111.781C350.459 115.643 351.011 117.528 352.16 119H347.287C346.735 118.264 346.689 117.712 346.505 116.471L346.321 112.885C346.275 111.184 345.907 109.437 345.218 107.69C344.528 105.942 343.057 105.023 340.758 104.977H329.954V119H325.586V86.1729ZM329.954 101.299H339.287C344.114 101.299 346.643 99.4599 346.643 95.46C346.643 91.9198 344.574 89.8509 340.988 89.8509H329.954V101.299Z" fill="#262626"/>
<path d="M375.908 56.7348C374.996 59.1833 374.948 61.4877 375.86 63.7442C376.772 66.0006 378.405 67.7289 380.709 68.8331C380.757 68.8331 380.757 68.8811 380.805 68.8811H370.963H369.139H361.938L361.986 68.8331C367.747 66.2886 371.827 62.1119 374.276 56.3508L393.431 9.10985C390.503 4.69301 386.326 1.66844 380.901 0.0841419C380.901 0.0361328 380.853 0.0361328 380.853 0.0361328C380.805 0.0361328 380.805 0.0361328 380.757 0.0361328H397.128H398.952H407.882L429.63 57.359C431.647 62.4959 435.103 66.3367 440 68.8811H433.999H417.1H409.659L409.755 68.8331C411.483 67.6809 412.683 66.1926 413.307 64.3203C413.931 62.3999 413.883 60.4796 413.211 58.5592L409.514 48.9094H379.077L375.908 56.7348ZM397.368 16.8393C396.6 14.6789 395.64 12.6625 394.536 10.8382L379.845 47.085H408.842L397.368 16.8393Z" fill="#262626"/>
<path d="M370.65 68.8811H338.395H319.144L319.24 68.8331C321.304 67.6329 322.936 66.0486 324.088 64.0322C325.289 62.0158 325.865 59.8074 325.865 57.455V11.4143C325.865 9.06184 325.289 6.90143 324.088 4.88505C322.936 2.86867 321.304 1.23636 319.24 0.0841419L319.144 0.0361328H349.485C349.437 0.0361328 349.437 0.0361328 349.389 0.0841419C347.325 1.23636 345.693 2.86867 344.54 4.88505C343.34 6.90143 342.764 9.06184 342.764 11.4143V67.0568H353.278C359.279 67.0568 364.56 65.1844 369.121 61.3917C373.634 57.599 375.825 53.3565 378.412 46.8879C378.412 46.7919 380.355 46.4129 379.059 46.4609C379.059 46.4609 380.307 46.8879 379.706 46.8879L370.65 68.8811Z" fill="#262626"/>
<path d="M253.569 67.5884C257.45 67.5884 258.146 66.0496 259.346 64.0332C260.498 62.0168 261.123 59.8084 261.123 57.456V11.4153C261.123 9.06281 260.498 6.90241 259.346 4.83802C258.146 2.82164 256.514 1.23734 254.449 0.0371094H254.353H261.123H277.974H313.02V22.4093C313.02 22.3613 312.972 22.2653 312.972 22.2173C311.772 16.2162 308.892 11.3192 304.331 7.52652C299.77 3.73381 294.537 1.81344 288.536 1.81344H277.974V33.0673H287.047C290.264 33.0673 293.145 32.1552 295.785 30.3308C298.378 28.5545 300.25 26.106 301.45 23.0815C301.45 23.0335 301.45 23.0335 301.498 22.9854V44.9736L301.45 44.8776C300.25 41.805 298.378 39.4045 295.785 37.5802C293.145 35.7559 290.264 34.8917 287.047 34.8917H277.974V67.0578H288.536C294.537 67.0578 299.77 65.1854 304.331 61.3927C308.892 57.6 311.772 52.7031 312.972 46.7019C312.972 46.6059 313.02 46.5579 313.02 46.4619V68.8821H273.605H261.123H254.353L253.569 67.5884Z" fill="#262626"/>
<path d="M241.283 57.0828C244.567 61.3977 248.58 64.7408 253.274 67.1361C254.481 67.7523 256.508 67.5513 257.155 67.5513C257.926 66.9524 257.126 68.845 257.126 68.845H249.397H243.972C240.371 68.845 236.963 68.0289 233.794 66.3965C230.625 64.8122 227.937 62.5078 225.776 59.5793C222.608 55.2584 219.439 50.9376 216.271 46.5688C215.118 44.9845 213.966 43.4002 212.814 41.8159H200.812V57.4188C200.812 59.7713 201.388 61.9797 202.588 63.9961C203.788 66.0125 205.421 67.5968 207.485 68.797L207.533 68.845H177.239L177.287 68.797C179.352 67.5968 180.984 66.0125 182.184 63.9961C183.336 61.9797 183.961 59.7713 183.961 57.4188V11.3781C183.961 9.02571 183.336 6.8653 182.184 4.84892C180.984 2.83254 179.352 1.20023 177.287 0.0480091L177.239 0H200.812H225.536C229.377 0 232.93 0.912172 236.05 2.83254C239.219 4.70489 241.763 7.20136 243.636 10.37C245.508 13.5386 246.468 17.0432 246.468 20.8839C246.468 26.0209 244.884 30.4858 241.667 34.2785C238.451 38.0712 234.37 40.4716 229.425 41.4798C233.362 46.6648 237.299 51.8978 241.283 57.0828ZM200.812 40.0396H210.462C214.014 40.0396 217.231 39.1754 220.111 37.4471C222.992 35.7187 225.296 33.4143 227.025 30.5338C228.753 27.6532 229.617 24.4366 229.617 20.8839C229.617 17.3793 228.753 14.1627 227.025 11.2821C225.296 8.40159 222.992 6.09715 220.111 4.36883C217.231 2.6405 214.014 1.77634 210.462 1.77634H200.812V40.0396Z" fill="#262626"/>
<path d="M173.672 63.121C168.679 66.5776 163.254 68.498 157.445 68.834C151.587 69.1221 145.97 67.9699 140.497 65.3774C135.072 62.7849 130.415 58.8001 126.527 53.5191C122.734 48.1421 120.526 42.4771 119.805 36.4759C119.085 30.4748 119.805 24.7617 122.014 19.3367C124.174 13.9117 127.727 9.3988 132.624 5.79812C139.105 1.33327 146.114 -0.53908 153.652 0.133047C161.237 0.853183 168.055 3.82975 174.2 9.11074L163.542 22.5053C158.165 15.832 152.692 11.0791 147.171 8.24658C141.602 5.41405 137.137 5.07798 133.728 7.2864C131.424 9.01473 130.175 11.7993 130.031 15.544C129.839 19.3367 130.655 23.6575 132.48 28.5544C134.256 33.4033 136.945 38.3963 140.545 43.4852C151.347 58.3201 162.053 64.5132 172.759 61.9687C172.855 61.9687 173.096 61.8727 173.48 61.7767C173.864 61.6327 174.344 61.4886 174.824 61.3446C175.304 61.1526 175.736 61.0086 176.072 60.9125C176.456 60.7685 176.648 60.7205 176.648 60.7205C175.688 61.5847 174.728 62.3528 173.672 63.121Z" fill="#262626"/>
<path d="M119.779 0.0361328L119.683 0.0841419C117.282 1.23636 115.362 2.96469 113.97 5.1731C112.577 7.38152 111.857 9.82998 111.857 12.4705V48.1892C111.857 52.03 110.945 55.4866 109.073 58.6072C107.2 61.7278 104.704 64.2243 101.583 66.0966C98.4627 67.969 95.006 68.8811 91.1653 68.8811H76.2345C72.4418 68.8811 68.9851 67.969 65.8165 66.0966C62.6959 64.2243 60.1994 61.7278 58.3751 58.6072C56.5027 55.4866 55.5906 52.03 55.5906 48.1892V11.4143C55.5906 9.06184 54.9665 6.90143 53.8142 4.88505C52.614 2.86867 50.9817 1.23636 48.9173 0.0841419L48.8213 0.0361328H79.163L79.115 0.0841419C77.0026 1.23636 75.4183 2.86867 74.2181 4.88505C73.0179 6.90143 72.4418 9.06184 72.4418 11.4143V48.2852C72.4418 51.7419 73.3059 54.8625 74.9862 57.743C76.6666 60.5756 78.923 62.832 81.8035 64.5123C84.6361 66.2406 87.8047 67.0568 91.2613 67.0568C94.718 67.0568 97.8386 66.2406 100.719 64.5123C103.552 62.832 105.808 60.5756 107.488 57.743C109.217 54.8625 110.033 51.7419 110.033 48.2852V12.4705C110.033 9.82998 109.361 7.38152 107.92 5.1731C106.528 2.96469 104.608 1.23636 102.207 0.0841419L102.111 0.0361328H119.779Z" fill="#262626"/>
<path d="M1.77886 21.4121C1.44168 7.0618 16.8992 0.314453 27.5724 0.314453C21.3464 2.95165 13.3415 6.4679 13.3415 14.3796C13.3415 24.0493 24.9041 25.8074 33.7984 29.3236C42.6927 32.8399 56.9236 38.9933 56.9236 49.5421C56.9236 59.2118 45.361 68.8815 26.6829 68.8815C8.00488 68.8815 0 55.6956 0 55.6956L11.5626 48.663C11.5626 48.663 14.2309 67.1234 26.6829 67.1234C37.6252 67.1234 42.6927 60.9699 42.6927 54.8165C42.6927 46.9049 26.6829 43.3887 26.6829 43.3887C26.6829 43.3887 2.11604 35.7623 1.77886 21.4121Z" fill="#262626"/>
</svg>
